<mxfile host="65bd71144e">
    <diagram name="Page-1" id="RwInKWgxSHOYMCkuj2Ta">
        <mxGraphModel dx="743" dy="536" grid="1" gridSize="10" guides="1" tooltips="1" connect="1" arrows="1" fold="1" page="1" pageScale="1" pageWidth="850" pageHeight="1100" math="0" shadow="0">
            <root>
                <mxCell id="0"/>
                <mxCell id="1" parent="0"/>
                <mxCell id="iLrRrVlQhxh5jhxF18LM-2" value="EUC" style="swimlane;whiteSpace=wrap;html=1;" parent="1" vertex="1">
                    <mxGeometry x="310" y="40" width="200" height="310" as="geometry"/>
                </mxCell>
                <mxCell id="iLrRrVlQhxh5jhxF18LM-9" value="MPU-6050" style="rounded=1;whiteSpace=wrap;html=1;" parent="iLrRrVlQhxh5jhxF18LM-2" vertex="1">
                    <mxGeometry x="40" y="40" width="120" height="60" as="geometry"/>
                </mxCell>
                <mxCell id="iLrRrVlQhxh5jhxF18LM-1" value="ESP32" style="rounded=0;whiteSpace=wrap;html=1;" parent="iLrRrVlQhxh5jhxF18LM-2" vertex="1">
                    <mxGeometry x="40" y="130" width="120" height="60" as="geometry"/>
                </mxCell>
                <mxCell id="6" value="" style="endArrow=classic;startArrow=classic;html=1;rounded=0;" edge="1" parent="iLrRrVlQhxh5jhxF18LM-2" source="iLrRrVlQhxh5jhxF18LM-1" target="iLrRrVlQhxh5jhxF18LM-9">
                    <mxGeometry width="50" height="50" relative="1" as="geometry">
                        <mxPoint x="80" y="120" as="sourcePoint"/>
                        <mxPoint x="80" y="90" as="targetPoint"/>
                    </mxGeometry>
                </mxCell>
                <mxCell id="7" value="I2C" style="edgeLabel;html=1;align=center;verticalAlign=middle;resizable=0;points=[];" vertex="1" connectable="0" parent="6">
                    <mxGeometry x="0.3433" relative="1" as="geometry">
                        <mxPoint x="17" y="5" as="offset"/>
                    </mxGeometry>
                </mxCell>
                <mxCell id="12" value="LED strip" style="rounded=1;whiteSpace=wrap;html=1;" vertex="1" parent="iLrRrVlQhxh5jhxF18LM-2">
                    <mxGeometry x="40" y="230" width="120" height="60" as="geometry"/>
                </mxCell>
                <mxCell id="13" value="" style="endArrow=classic;startArrow=classic;html=1;rounded=0;" edge="1" parent="iLrRrVlQhxh5jhxF18LM-2" source="iLrRrVlQhxh5jhxF18LM-1" target="12">
                    <mxGeometry width="50" height="50" relative="1" as="geometry">
                        <mxPoint x="110.00000000000011" y="140" as="sourcePoint"/>
                        <mxPoint x="110.00000000000011" y="110" as="targetPoint"/>
                    </mxGeometry>
                </mxCell>
                <mxCell id="14" value="&lt;div style=&quot;font-family: Consolas, &amp;quot;Courier New&amp;quot;, monospace; line-height: 19px;&quot;&gt;&lt;font style=&quot;font-size: 12px;&quot; color=&quot;#ffffff&quot;&gt;NEO GRBW/KHZ800&lt;/font&gt;&lt;/div&gt;" style="edgeLabel;html=1;align=center;verticalAlign=middle;resizable=0;points=[];labelBackgroundColor=none;" vertex="1" connectable="0" parent="13">
                    <mxGeometry x="0.3433" relative="1" as="geometry">
                        <mxPoint x="25" y="-7" as="offset"/>
                    </mxGeometry>
                </mxCell>
                <mxCell id="iLrRrVlQhxh5jhxF18LM-3" value="Left Hand Module" style="swimlane;whiteSpace=wrap;html=1;" parent="1" vertex="1">
                    <mxGeometry x="50" y="40" width="200" height="310" as="geometry"/>
                </mxCell>
                <mxCell id="iLrRrVlQhxh5jhxF18LM-5" value="ESP32" style="rounded=0;whiteSpace=wrap;html=1;" parent="iLrRrVlQhxh5jhxF18LM-3" vertex="1">
                    <mxGeometry x="40" y="130" width="120" height="60" as="geometry"/>
                </mxCell>
                <mxCell id="iLrRrVlQhxh5jhxF18LM-7" value="MPU-6050" style="rounded=1;whiteSpace=wrap;html=1;" parent="iLrRrVlQhxh5jhxF18LM-3" vertex="1">
                    <mxGeometry x="40" y="40" width="120" height="60" as="geometry"/>
                </mxCell>
                <mxCell id="iLrRrVlQhxh5jhxF18LM-13" value="" style="endArrow=classic;startArrow=classic;html=1;rounded=0;" parent="iLrRrVlQhxh5jhxF18LM-3" source="iLrRrVlQhxh5jhxF18LM-5" target="iLrRrVlQhxh5jhxF18LM-7" edge="1">
                    <mxGeometry width="50" height="50" relative="1" as="geometry">
                        <mxPoint x="60" y="360" as="sourcePoint"/>
                        <mxPoint x="110" y="310" as="targetPoint"/>
                    </mxGeometry>
                </mxCell>
                <mxCell id="4" value="I2C" style="edgeLabel;html=1;align=center;verticalAlign=middle;resizable=0;points=[];" vertex="1" connectable="0" parent="iLrRrVlQhxh5jhxF18LM-13">
                    <mxGeometry x="0.3433" relative="1" as="geometry">
                        <mxPoint x="17" y="5" as="offset"/>
                    </mxGeometry>
                </mxCell>
                <mxCell id="18" value="Buzzer" style="rounded=1;whiteSpace=wrap;html=1;" vertex="1" parent="iLrRrVlQhxh5jhxF18LM-3">
                    <mxGeometry x="40" y="230" width="120" height="60" as="geometry"/>
                </mxCell>
                <mxCell id="19" value="" style="endArrow=classic;startArrow=classic;html=1;rounded=0;" edge="1" parent="iLrRrVlQhxh5jhxF18LM-3" source="18" target="iLrRrVlQhxh5jhxF18LM-5">
                    <mxGeometry width="50" height="50" relative="1" as="geometry">
                        <mxPoint x="-460" y="100" as="sourcePoint"/>
                        <mxPoint x="100.00000000000011" y="190" as="targetPoint"/>
                    </mxGeometry>
                </mxCell>
                <mxCell id="20" value="GPIO" style="edgeLabel;html=1;align=center;verticalAlign=middle;resizable=0;points=[];" vertex="1" connectable="0" parent="19">
                    <mxGeometry x="0.6453" relative="1" as="geometry">
                        <mxPoint x="17" y="10" as="offset"/>
                    </mxGeometry>
                </mxCell>
                <mxCell id="iLrRrVlQhxh5jhxF18LM-4" value="Right Hand Module" style="swimlane;whiteSpace=wrap;html=1;" parent="1" vertex="1">
                    <mxGeometry x="570" y="40" width="200" height="310" as="geometry"/>
                </mxCell>
                <mxCell id="iLrRrVlQhxh5jhxF18LM-6" value="ESP32" style="rounded=0;whiteSpace=wrap;html=1;" parent="iLrRrVlQhxh5jhxF18LM-4" vertex="1">
                    <mxGeometry x="40" y="130" width="120" height="60" as="geometry"/>
                </mxCell>
                <mxCell id="iLrRrVlQhxh5jhxF18LM-8" value="MPU-6050" style="rounded=1;whiteSpace=wrap;html=1;" parent="iLrRrVlQhxh5jhxF18LM-4" vertex="1">
                    <mxGeometry x="40" y="40" width="120" height="60" as="geometry"/>
                </mxCell>
                <mxCell id="iLrRrVlQhxh5jhxF18LM-15" value="" style="endArrow=classic;startArrow=classic;html=1;rounded=0;" parent="iLrRrVlQhxh5jhxF18LM-4" source="iLrRrVlQhxh5jhxF18LM-6" target="iLrRrVlQhxh5jhxF18LM-8" edge="1">
                    <mxGeometry width="50" height="50" relative="1" as="geometry">
                        <mxPoint x="-150" y="130" as="sourcePoint"/>
                        <mxPoint x="-150" y="100" as="targetPoint"/>
                    </mxGeometry>
                </mxCell>
                <mxCell id="5" value="I2C" style="edgeLabel;html=1;align=center;verticalAlign=middle;resizable=0;points=[];" vertex="1" connectable="0" parent="iLrRrVlQhxh5jhxF18LM-15">
                    <mxGeometry x="0.6453" relative="1" as="geometry">
                        <mxPoint x="17" y="10" as="offset"/>
                    </mxGeometry>
                </mxCell>
                <mxCell id="15" value="Buzzer" style="rounded=1;whiteSpace=wrap;html=1;" vertex="1" parent="iLrRrVlQhxh5jhxF18LM-4">
                    <mxGeometry x="40" y="230" width="120" height="60" as="geometry"/>
                </mxCell>
                <mxCell id="16" value="" style="endArrow=classic;startArrow=classic;html=1;rounded=0;" edge="1" parent="iLrRrVlQhxh5jhxF18LM-4" source="15" target="iLrRrVlQhxh5jhxF18LM-6">
                    <mxGeometry width="50" height="50" relative="1" as="geometry">
                        <mxPoint x="110" y="140" as="sourcePoint"/>
                        <mxPoint x="110" y="110" as="targetPoint"/>
                    </mxGeometry>
                </mxCell>
                <mxCell id="17" value="GPIO" style="edgeLabel;html=1;align=center;verticalAlign=middle;resizable=0;points=[];" vertex="1" connectable="0" parent="16">
                    <mxGeometry x="0.6453" relative="1" as="geometry">
                        <mxPoint x="17" y="10" as="offset"/>
                    </mxGeometry>
                </mxCell>
                <mxCell id="iLrRrVlQhxh5jhxF18LM-12" value="" style="shape=flexArrow;endArrow=classic;html=1;rounded=0;dashed=1;" parent="1" source="iLrRrVlQhxh5jhxF18LM-5" target="iLrRrVlQhxh5jhxF18LM-1" edge="1">
                    <mxGeometry width="50" height="50" relative="1" as="geometry">
                        <mxPoint x="630" y="210" as="sourcePoint"/>
                        <mxPoint x="480" y="210" as="targetPoint"/>
                        <Array as="points">
                            <mxPoint x="280" y="200"/>
                        </Array>
                    </mxGeometry>
                </mxCell>
                <mxCell id="8" value="BLE" style="edgeLabel;html=1;align=center;verticalAlign=middle;resizable=0;points=[];" vertex="1" connectable="0" parent="iLrRrVlQhxh5jhxF18LM-12">
                    <mxGeometry x="-0.269" y="3" relative="1" as="geometry">
                        <mxPoint x="19" y="-17" as="offset"/>
                    </mxGeometry>
                </mxCell>
                <mxCell id="9" value="" style="shape=flexArrow;endArrow=classic;html=1;rounded=0;dashed=1;" edge="1" parent="1" source="iLrRrVlQhxh5jhxF18LM-6" target="iLrRrVlQhxh5jhxF18LM-1">
                    <mxGeometry width="50" height="50" relative="1" as="geometry">
                        <mxPoint x="560" y="280" as="sourcePoint"/>
                        <mxPoint x="360" y="210" as="targetPoint"/>
                        <Array as="points"/>
                    </mxGeometry>
                </mxCell>
                <mxCell id="10" value="BLE" style="edgeLabel;html=1;align=center;verticalAlign=middle;resizable=0;points=[];" vertex="1" connectable="0" parent="9">
                    <mxGeometry x="-0.269" y="3" relative="1" as="geometry">
                        <mxPoint x="-19" y="-17" as="offset"/>
                    </mxGeometry>
                </mxCell>
            </root>
        </mxGraphModel>
    </diagram>
</mxfile>